<svg width="86" height="86" viewBox="0 0 86 86" fill="none" xmlns="http://www.w3.org/2000/svg">
<rect width="86" height="86" fill="#071C31"/>
<path d="M25.4878 64.3842L6.48 78.64C6.32624 78.7553 6.4078 79 6.6 79H20.8558C20.9419 79 21.0184 78.9449 21.0456 78.8632L25.7975 64.6074C25.8595 64.4214 25.6447 64.2665 25.4878 64.3842Z" fill="#DFF464"/>
<path d="M34.4489 8.12349L8.32814 71.2075C8.24717 71.403 8.48571 71.5739 8.64481 71.4344L36.1006 47.3504C36.2393 47.2287 36.1533 47 35.9687 47H33L47.3997 8.2697C47.4483 8.13903 47.3517 8 47.2123 8H34.6337C34.5528 8 34.4798 8.04874 34.4489 8.12349Z" fill="#DFF464"/>
<path d="M44.0377 27.9195L51.31 12.4052C51.3834 12.2487 51.6075 12.2527 51.6752 12.4118L79.8816 78.7217C79.9377 78.8536 79.8409 79 79.6976 79H64.0547C64.0189 79 63.9837 78.9904 63.9529 78.9722L31.2531 59.6496C31.1316 59.5778 31.1207 59.4061 31.2321 59.3195L39.897 52.5801C39.9596 52.5314 40.0451 52.5244 40.1148 52.5621L58.0005 62.23C58.1666 62.3198 58.3532 62.1506 58.28 61.9766L44.0344 28.0819C44.0125 28.0298 44.0137 27.9708 44.0377 27.9195Z" fill="#DFF464"/>
<path d="M25.4878 64.3842L6.48 78.64C6.32624 78.7553 6.4078 79 6.6 79H20.8558C20.9419 79 21.0184 78.9449 21.0456 78.8632L25.7975 64.6074C25.8595 64.4214 25.6447 64.2665 25.4878 64.3842Z" stroke="#DFF464"/>
<path d="M34.4489 8.12349L8.32814 71.2075C8.24717 71.403 8.48571 71.5739 8.64481 71.4344L36.1006 47.3504C36.2393 47.2287 36.1533 47 35.9687 47H33L47.3997 8.2697C47.4483 8.13903 47.3517 8 47.2123 8H34.6337C34.5528 8 34.4798 8.04874 34.4489 8.12349Z" stroke="#DFF464"/>
<path d="M44.0377 27.9195L51.31 12.4052C51.3834 12.2487 51.6075 12.2527 51.6752 12.4118L79.8816 78.7217C79.9377 78.8536 79.8409 79 79.6976 79H64.0547C64.0189 79 63.9837 78.9904 63.9529 78.9722L31.2531 59.6496C31.1316 59.5778 31.1207 59.4061 31.2321 59.3195L39.897 52.5801C39.9596 52.5314 40.0451 52.5244 40.1148 52.5621L58.0005 62.23C58.1666 62.3198 58.3532 62.1506 58.28 61.9766L44.0344 28.0819C44.0125 28.0298 44.0137 27.9708 44.0377 27.9195Z" stroke="#DFF464"/>
</svg>
