<svg width="171" height="26" viewBox="0 0 171 26" fill="none" xmlns="http://www.w3.org/2000/svg">
<path d="M21.8426 0C21.5095 0.595102 21.2103 1.21073 20.9384 1.84004C18.3551 1.45015 15.7243 1.45015 13.1342 1.84004C12.8691 1.21073 12.5631 0.595102 12.23 0C9.8031 0.417273 7.43735 1.14917 5.19399 2.18205C0.748006 8.81032 -0.45526 15.2676 0.142982 21.6359C2.74665 23.5717 5.66305 25.0492 8.76979 25.9931C9.46999 25.0492 10.0886 24.0437 10.6189 22.9971C9.61275 22.6209 8.64062 22.1489 7.70929 21.6017C7.95401 21.4238 8.19195 21.2392 8.42308 21.0613C13.882 23.6469 20.2042 23.6469 25.6699 21.0613C25.901 21.2528 26.139 21.4375 26.3837 21.6017C25.4524 22.1557 24.4802 22.6209 23.4673 23.004C23.9976 24.0505 24.6162 25.056 25.3164 26C28.4231 25.056 31.3394 23.5854 33.9433 21.6496C34.6502 14.262 32.7332 7.8595 28.8785 2.1889C26.642 1.15603 24.2763 0.424098 21.8494 0.0136771L21.8426 0ZM11.3803 17.7164C9.70115 17.7164 8.30753 16.1842 8.30753 14.2894C8.30753 12.3947 9.64675 10.8556 11.3735 10.8556C13.1002 10.8556 14.4734 12.4015 14.4462 14.2894C14.419 16.1773 13.0934 17.7164 11.3803 17.7164ZM22.7059 17.7164C21.02 17.7164 19.64 16.1842 19.64 14.2894C19.64 12.3947 20.9792 10.8556 22.7059 10.8556C24.4327 10.8556 25.7991 12.4015 25.7719 14.2894C25.7447 16.1773 24.4191 17.7164 22.7059 17.7164ZM45.4454 3.60598H55.5918C58.0373 3.60598 60.1062 3.98992 61.7985 4.75781C63.3566 5.41691 64.6796 6.53561 65.5932 7.96645C66.4484 9.37993 66.8866 11.0089 66.8568 12.6635C66.8756 14.3256 66.4203 15.9583 65.5448 17.368C64.5683 18.8572 63.1718 20.0188 61.5346 20.7038C59.7407 21.5265 57.5169 21.9367 54.8633 21.9341H45.4454L45.4454 3.60598ZM54.7592 17.2708C56.4069 17.2708 57.673 16.8569 58.5576 16.0292C59.465 15.1438 59.8901 13.9378 59.8844 12.6373C59.8893 11.4333 59.5129 10.3103 58.7026 9.45858C57.9097 8.66577 56.7166 8.26811 55.1234 8.26562H51.9494V17.2708H54.7592ZM82.0503 21.9042C80.7117 21.5668 79.4312 21.0284 78.2519 20.3074V15.9619C79.2815 16.7154 80.4408 17.2708 81.6712 17.5999C83.0172 18.0131 84.4155 18.2285 85.8227 18.2394C86.3084 18.2655 86.7936 18.1811 87.2424 17.9926C87.5621 17.828 87.7219 17.6186 87.7219 17.4017C87.7288 17.1567 87.6346 16.9198 87.4617 16.7472C87.1648 16.5175 86.8164 16.3647 86.4471 16.3022L83.3251 15.5954C81.5362 15.1766 80.2663 14.5969 79.5156 13.8565C78.7536 13.0831 78.3491 12.0236 78.4006 10.9358C78.3881 9.96076 78.7411 9.01675 79.3892 8.29183C80.1577 7.47386 81.1268 6.87407 82.199 6.55289C83.5787 6.11653 85.0197 5.90815 86.4657 5.93585C87.8155 5.9231 89.1616 6.0814 90.4722 6.40705C91.5307 6.65941 92.5473 7.06504 93.49 7.61123V11.7249C92.6059 11.2087 91.6555 10.8174 90.6654 10.5618C89.5927 10.2724 88.4868 10.1266 87.3762 10.128C85.7459 10.128 84.9307 10.4073 84.9307 10.9657C84.9251 11.22 85.0716 11.4528 85.3023 11.5566C85.7478 11.7472 86.2145 11.8828 86.6923 11.9605L89.294 12.4317C90.9838 12.7308 92.2437 13.2544 93.0738 14.0024C93.9038 14.7503 94.3201 15.8448 94.3225 17.2858C94.3494 18.8277 93.5615 20.2683 92.2524 21.0703C90.8822 21.9953 88.926 22.4565 86.3839 22.454C84.922 22.4563 83.4659 22.2715 82.0503 21.9042ZM100.47 21.3545C99.0789 20.7114 97.9066 19.671 97.0989 18.3628C96.3454 17.0798 95.9595 15.612 95.9839 14.122C95.9614 12.6328 96.368 11.169 97.1546 9.90736C97.993 8.61962 99.1864 7.60592 100.589 6.9904C102.294 6.24284 104.141 5.88033 106 5.92833C108.602 5.92833 110.761 6.47806 112.478 7.57751V12.3755C111.825 11.9336 111.111 11.5897 110.36 11.3546C109.518 11.0873 108.64 10.9548 107.758 10.9619C106.145 10.9619 104.883 11.2586 103.971 11.852C102.689 12.5717 102.23 14.2004 102.945 15.4899C103.179 15.9101 103.52 16.2592 103.934 16.5004C104.818 17.1012 106.102 17.4016 107.784 17.4016C108.652 17.4037 109.516 17.2777 110.349 17.0277C111.107 16.8087 111.837 16.4959 112.519 16.0965V20.7337C110.508 21.9135 108.212 22.5114 105.885 22.4614C104.02 22.5126 102.167 22.134 100.47 21.3545ZM118.956 21.3545C117.55 20.7083 116.357 19.6701 115.518 18.3628C114.728 17.0828 114.318 15.6024 114.337 14.0958C114.311 12.607 114.722 11.1438 115.518 9.88864C116.361 8.61459 117.549 7.61012 118.941 6.99414C122.362 5.59791 126.188 5.59791 129.608 6.99414C130.995 7.60543 132.178 8.60497 133.016 9.87369C133.807 11.1335 134.214 12.5986 134.187 14.0883C134.205 15.5934 133.799 17.0729 133.016 18.3553C132.187 19.6635 131 20.7025 129.597 21.347C126.2 22.813 122.354 22.813 118.956 21.347L118.956 21.3545ZM126.862 16.7098C127.511 16.035 127.855 15.1204 127.813 14.1818C127.858 13.2516 127.513 12.3451 126.862 11.6837C126.155 11.0319 125.217 10.696 124.26 10.7525C123.304 10.7019 122.368 11.0371 121.658 11.6837C121.009 12.3465 120.666 13.2524 120.711 14.1818C120.668 15.1196 121.011 16.0337 121.658 16.7098C122.361 17.3697 123.3 17.7139 124.26 17.6634C125.221 17.7197 126.162 17.3747 126.862 16.7098ZM149.823 6.89691V12.5588C149.046 12.0924 148.151 11.8649 147.247 11.9043C145.861 11.9043 144.79 12.3307 144.047 13.1758C143.304 14.021 142.932 15.3336 142.932 17.1137V21.9304H136.558V6.61643H142.802V11.478C143.149 9.69795 143.709 8.3853 144.482 7.54014C145.24 6.69904 146.342 6.25712 147.455 6.26865C148.28 6.26689 149.11 6.46384 149.823 6.89691ZM171 3.08244V21.9304H164.626V18.4899C164.145 19.7147 163.282 20.7491 162.166 21.4368C160.933 22.1431 159.532 22.495 158.115 22.454C156.781 22.4852 155.468 22.1168 154.342 21.3956C153.252 20.6832 152.384 19.6762 151.837 18.4899C151.24 17.1805 150.943 15.753 150.967 14.3127C150.925 12.8193 151.242 11.3377 151.889 9.99334C152.484 8.76195 153.413 7.72487 154.569 7.00161C155.757 6.27751 157.124 5.90549 158.512 5.92833C161.545 5.92833 163.583 7.25468 164.626 9.90736V3.08244H171ZM163.689 16.6201C164.346 15.9696 164.701 15.0711 164.667 14.1444C164.695 13.2451 164.339 12.3768 163.689 11.7585C162.186 10.5271 160.03 10.5271 158.527 11.7585C157.879 12.3909 157.529 13.2706 157.564 14.1781C157.531 15.094 157.885 15.9811 158.538 16.6201C159.228 17.2653 160.147 17.6037 161.088 17.5587C162.045 17.612 162.984 17.2734 163.689 16.6201ZM72.231 2.5028C73.986 2.5028 75.4087 3.78866 75.4087 5.37488C75.4087 6.96109 73.986 8.24696 72.231 8.24696C70.476 8.24696 69.0533 6.96109 69.0533 5.37488C69.0533 3.78866 70.476 2.5028 72.231 2.5028ZM69.0496 10.2252C71.0831 11.0852 73.3752 11.0852 75.4087 10.2252V22.0127H69.0496V10.2252Z" fill="black"/>
</svg>
