<svg width="114" height="36" viewBox="0 0 114 36" fill="none" xmlns="http://www.w3.org/2000/svg">
<g clip-path="url(#clip0_1173_41)">
<path d="M57.4375 27.7059C57.3015 27.0981 57.104 25.5498 57.0897 24.8261C56.5352 25.0509 55.8989 25.2714 55.2042 25.4718C54.04 25.8075 52.7484 26.0747 51.4414 26.2101L51.442 26.2067L51.4399 26.207C50.3077 26.3303 49.4956 26.328 48.5765 26.269C46.4442 26.1128 44.6795 25.4688 43.5449 24.2269C42.4972 23.0802 41.7739 21.1876 42.0866 18.0278C42.5011 17.8964 42.9449 17.8243 43.4193 17.8243L43.7545 17.8242C46.056 17.8243 47.2724 18.8601 47.969 20.1442C48.7219 21.5321 48.8888 23.2871 48.7712 24.511L48.7662 24.5631L48.765 24.6153C48.7642 24.6567 48.7629 24.6988 48.7613 24.7415C49.5723 24.8054 50.6688 24.7595 51.5816 24.6454L51.5836 24.6452C51.7141 23.0505 51.5074 20.7658 50.4416 18.8011C49.2889 16.6764 47.1608 15.009 43.7541 15.009L43.4189 15.0091C40.874 15.0091 38.9632 16.2818 37.6623 17.7399C36.3774 19.1799 35.6017 20.8854 35.2665 22.0578L35.257 22.0908L35.2492 22.1243C35.161 22.5012 35.0835 22.8875 35.018 23.2803C34.9192 23.4244 34.8459 23.5894 34.8056 23.7703C33.8157 28.2211 31.756 30.5245 29.871 31.554C27.895 32.6333 26.1716 32.3333 25.5063 31.8257C25.2866 31.658 25.0949 31.3629 25.0071 30.7376C24.9162 30.0898 24.9629 29.259 25.0916 28.2381C25.1498 27.7771 25.2211 27.3019 25.2963 26.8054L25.3114 26.7058L25.3122 26.7006L25.3159 26.6759C25.3973 26.1389 25.4822 25.5778 25.5517 25.0205C25.689 23.9193 25.78 22.7378 25.6469 21.6339C25.462 20.1008 24.9215 18.8474 24.0276 17.9586C23.1261 17.0621 21.984 16.6557 20.8327 16.6112C20.743 16.6077 20.653 16.6064 20.5629 16.6072C19.8103 16.6329 17.4863 16.7867 15.1509 19.1125C15.1234 19.1405 15.0959 19.169 15.0689 19.1974C15.1986 17.8921 15.3315 16.5658 15.4702 15.2738C15.7046 13.09 15.9565 10.9889 16.2393 9.19397C16.5265 7.37194 16.8316 5.96204 17.1483 5.10874C17.8955 3.09554 19.1987 2.71063 19.8958 2.85375C20.5187 2.98161 21.5459 3.74331 21.2847 6.07276C20.8414 10.0268 19.3793 13.2273 17.9034 15.5575C18.8783 15.2236 20.0826 14.957 21.4011 15.115C22.6282 12.7561 23.6947 9.82891 24.0806 6.38657C24.4465 3.12237 22.9634 0.609666 20.4612 0.0960002C18.0332 -0.402423 15.5964 1.204 14.5109 4.12865C14.0886 5.26664 13.7498 6.91833 13.4603 8.75547C13.1665 10.6197 12.9088 12.7753 12.6729 14.9732C12.5074 16.5154 12.353 18.0715 12.2044 19.5699L12.2043 19.5714C12.0778 20.8465 11.9554 22.0798 11.8339 23.2272L11.8359 23.2275L11.3072 27.3453C10.6762 29.7014 10.2448 32.0305 10.0043 33.6306C9.88875 34.3994 10.4177 35.1163 11.186 35.232C11.9542 35.3476 12.6707 34.8182 12.7863 34.0495C13.0414 32.353 13.5228 29.7982 14.231 27.3318C14.9562 24.8059 15.8586 22.5982 16.8592 21.4134C17.9749 20.0923 19.5447 19.3787 20.7241 19.4243C21.2784 19.4457 21.7151 19.6279 22.0445 19.9555C22.3815 20.2906 22.7242 20.8966 22.8538 21.9712C22.9446 22.7244 22.89 23.6293 22.76 24.6719C22.6958 25.1865 22.6165 25.7116 22.5344 26.2536L22.5283 26.2938C22.449 26.8168 22.3671 27.3568 22.3004 27.8855C22.166 28.951 22.0755 30.092 22.2211 31.1292C22.3699 32.189 22.7886 33.2923 23.8006 34.0644C25.5987 35.4363 28.578 35.4674 31.2189 34.0251C32.7223 33.204 34.1468 31.9046 35.3122 30.0553C35.376 30.2611 35.4459 30.4637 35.5221 30.6626C36.0259 31.9775 36.8287 33.1823 38.0289 34.0338C39.2411 34.8939 40.7514 35.317 42.5239 35.238C46.0784 35.0797 48.3794 33.1993 49.7452 30.9837C49.8123 30.8749 49.8773 30.7651 49.9401 30.6547C49.0886 30.6687 47.9093 30.6366 46.6882 30.4187L46.6863 30.4184C45.7222 31.5359 44.3579 32.3384 42.3988 32.4257C41.1637 32.4807 40.2904 32.1873 39.6562 31.7374C39.01 31.2789 38.5035 30.5801 38.149 29.6548C37.4282 27.7735 37.429 25.1835 37.9805 22.8005C38.1754 22.1339 38.5891 21.1821 39.2252 20.2881C39.3693 22.7469 40.1497 24.6831 41.4685 26.1265C43.0919 27.9033 45.341 28.7213 47.6098 29.0024L47.617 29.003L47.6236 29.0037L47.6353 29.0051C48.6685 29.1453 50.0431 29.1234 50.6766 29.0911C50.6919 29.0903 50.7064 29.0904 50.7203 29.0913C52.5781 28.9873 54.4057 28.6318 55.9833 28.1768C56.4912 28.0304 56.9782 27.872 57.4375 27.7059ZM9.59857 28.6029L10.0976 24.7164C9.08172 25.5328 7.77114 26.4677 6.37708 27.4027C4.25926 28.8232 2.06465 30.1683 0.696525 30.9693C0.0259804 31.3619 -0.199556 32.2241 0.192783 32.8951C0.585119 33.5661 1.44677 33.7917 2.11732 33.3991C3.52625 32.5743 5.77041 31.1987 7.94357 29.7411C8.49776 29.3693 9.05542 28.987 9.59857 28.6029ZM69.3868 0.406456C67.172 -0.658889 65.0071 0.499106 63.4766 2.38207C61.9252 4.29058 60.6566 7.29009 59.8893 11.1208C58.8263 16.4305 58.6033 19.2779 58.6033 23.3257C58.6033 23.3559 58.6043 23.386 58.6059 23.4157C58.6048 23.4349 58.6038 23.4543 58.6033 23.4737C58.5992 23.6667 58.5982 23.8717 58.6008 24.0869C58.6131 25.294 58.8033 26.6744 58.8841 27.1114C58.8857 27.1192 58.8867 27.127 58.8877 27.1349C59.0821 28.2274 59.3916 29.367 59.8652 30.4347C60.8259 32.6004 62.5431 34.5998 65.3774 35.1173C65.47 35.1493 65.5672 35.1721 65.6685 35.1844C68.9269 35.5813 72.8012 34.1037 76.2003 30.9732C76.2105 30.9619 76.2213 30.9512 76.2335 30.941C76.7113 30.5415 77.7359 29.4402 78.1896 28.8859L78.1881 28.8847C80.3008 26.3662 82.1637 23.0928 83.4982 19.0429C88.0099 22.476 89.8744 25.4745 89.2053 29.0112C88.905 30.6008 87.2099 32.0568 84.8599 32.371C84.6047 32.4051 84.3464 32.4247 84.0855 32.4288L84.0057 32.4289C83.9908 32.4289 83.976 32.4291 83.9612 32.4295C82.2639 32.4241 80.4925 31.7573 79.1344 30.1434L79.1329 30.1453C78.6837 30.7111 77.5671 31.8148 77.1727 32.1746L77.1712 32.1761C79.0873 34.3262 81.6 35.2461 83.9985 35.244L84.0057 35.2441C89.3189 35.2441 93.8551 34.2059 97.4245 32.0479C99.0184 31.084 100.401 29.9074 101.564 28.5268C101.564 28.6922 101.568 28.8407 101.577 28.9683C101.585 29.0766 101.592 29.1913 101.599 29.3112L101.602 29.3474C101.643 30.0277 101.694 30.8671 101.932 31.631C102.257 32.6709 102.904 33.578 104.073 34.3379C106.248 35.7516 108.541 35.2176 109.604 34.7291C110.642 34.2519 112.106 33.4933 113.113 31.5378L113.138 31.49C113.346 31.0871 113.966 29.8865 113.999 28.6301C114.02 27.8529 113.407 27.2064 112.63 27.1859C111.853 27.1654 111.207 27.7788 111.187 28.556C111.181 28.8009 111.106 29.1079 110.982 29.4409C110.86 29.7639 110.719 30.0412 110.617 30.2385C110.043 31.3538 109.271 31.7841 108.43 32.1708C107.868 32.4287 106.678 32.6741 105.605 31.9769C104.957 31.556 104.737 31.1739 104.618 30.7915C104.49 30.3826 104.462 29.9575 104.419 29.2953L104.413 29.2062C104.404 29.0693 104.395 28.9225 104.383 28.7641C104.364 28.5007 104.386 27.8629 104.464 26.9032C104.539 25.9809 104.656 24.8523 104.797 23.6681C105.018 21.813 105.293 19.8595 105.549 18.38H110.868C111.645 18.38 112.275 17.7498 112.275 16.9724C112.275 16.195 111.645 15.5649 110.868 15.5649H106.102L107.171 10.3201C107.326 9.55841 106.834 8.81505 106.073 8.6598C105.312 8.50451 104.569 8.99614 104.414 9.75791L103.231 15.5649H98.6148C97.8378 15.5649 97.2081 16.195 97.2081 16.9724C97.2081 17.7498 97.8378 18.38 98.6148 18.38H102.696C102.545 19.2958 102.392 20.3337 102.25 21.3915C102.23 21.4371 102.212 21.4842 102.197 21.5327C101.053 25.1524 98.9494 27.8367 95.9692 29.6384C94.5758 30.481 92.9707 31.1422 91.1547 31.6089C91.544 30.9864 91.8264 30.2927 91.9696 29.5347C92.9461 24.3727 89.9706 20.45 85.2702 16.8548C85.7895 16.7495 86.2267 16.3536 86.3592 15.8041C86.5408 15.0483 86.0758 14.2881 85.3208 14.1063C84.1699 13.8292 83.0471 13.91 82.2798 14.5397C81.9529 14.7244 81.7007 15.0386 81.6051 15.4321L81.5954 15.4705C81.5069 15.686 81.4548 15.9044 81.4317 16.1163C79.8664 22.0534 77.1712 26.2481 74.3061 28.8913C71.6278 31.3626 68.8768 32.4215 66.7529 32.4318C66.7407 32.431 66.7284 32.4304 66.7161 32.43L66.6992 32.4294C64.5365 32.3754 63.249 31.1236 62.4367 29.2925C61.9845 28.2738 61.7129 27.1304 61.5645 26.0498L61.5656 26.0495C61.3921 24.8342 61.4019 23.5848 61.4198 22.8589L61.4177 22.8606C61.4346 19.2473 61.6622 16.5971 62.6479 11.6738C63.3651 8.09298 64.5017 5.58256 65.6593 4.15841C66.8373 2.70873 67.6849 2.71137 68.1678 2.94368C68.6374 3.16957 69.2006 3.89433 69.2348 5.83833C69.2676 7.70602 68.7822 10.2702 67.7177 13.3419C66.5908 16.5955 64.7795 19.4572 62.9784 21.4022C62.9482 22.7732 62.9267 24.4511 63.0122 25.185C65.8506 23.0178 68.7735 18.8889 70.3761 14.2641C71.4953 11.0332 72.0887 8.11739 72.0477 5.78873C72.0083 3.53637 71.3449 1.34846 69.3868 0.406456Z" fill="black"/>
</g>
<defs>
<clipPath id="clip0_1173_41">
<rect width="114" height="35.25" fill="white"/>
</clipPath>
</defs>
</svg>
