<svg width="217" height="53" viewBox="0 0 217 53" fill="none" xmlns="http://www.w3.org/2000/svg">
<path d="M4.49257 19.8004V17.1391H17.2866V19.8004H4.49257ZM12.9894 5.68788L21.7792 24H18.3365L10.3525 6.90869H11.5977L3.61359 24H0.170913L8.96073 5.68788H12.9894ZM40.9804 22.0467L39.662 22.1932V5.68788H42.7872V24H38.6853L25.8424 7.49468L27.1365 7.34818V24H24.0112V5.68788H28.2108L40.9804 22.0467ZM52.7862 7.17727H56.0091V24H52.7862V7.17727ZM45.2172 5.68788H63.5781V8.52016H45.2172V5.68788ZM65.2707 19.8004V17.1391H78.0648V19.8004H65.2707ZM73.7675 5.68788L82.5573 24H79.1147L71.1306 6.90869H72.3758L64.3917 24H60.949L69.7388 5.68788H73.7675ZM101.759 22.0467L100.44 22.1932V5.68788H103.565V24H99.4634L86.6205 7.49468L87.9146 7.34818V24H84.7893V5.68788H88.9889L101.759 22.0467ZM117.178 24.3418C115.094 24.3418 113.263 23.943 111.684 23.1454C110.105 22.3478 108.876 21.241 107.997 19.8248C107.118 18.3924 106.679 16.7321 106.679 14.8439C106.679 12.9558 107.118 11.3036 107.997 9.88746C108.876 8.45505 110.105 7.34004 111.684 6.54245C113.263 5.74485 115.094 5.34605 117.178 5.34605C119.261 5.34605 121.093 5.74485 122.672 6.54245C124.25 7.34004 125.479 8.45505 126.358 9.88746C127.237 11.3036 127.677 12.9558 127.677 14.8439C127.677 16.7321 127.237 18.3924 126.358 19.8248C125.479 21.241 124.25 22.3478 122.672 23.1454C121.093 23.943 119.261 24.3418 117.178 24.3418ZM117.178 21.4607C118.659 21.4607 119.937 21.1921 121.011 20.655C122.086 20.1178 122.916 19.3528 123.502 18.3599C124.104 17.3669 124.405 16.195 124.405 14.8439C124.405 13.4929 124.104 12.3209 123.502 11.328C122.916 10.3351 122.086 9.57005 121.011 9.03289C119.937 8.49574 118.659 8.22716 117.178 8.22716C115.713 8.22716 114.435 8.49574 113.345 9.03289C112.27 9.57005 111.432 10.3351 110.83 11.328C110.244 12.3209 109.951 13.4929 109.951 14.8439C109.951 16.195 110.244 17.3669 110.83 18.3599C111.432 19.3528 112.27 20.1178 113.345 20.655C114.435 21.1921 115.713 21.4607 117.178 21.4607ZM139.378 22.6327H137.864L145.75 5.68788H149.193L140.354 24H136.765L127.927 5.68788H131.394L139.378 22.6327ZM149.404 18.0425H152.676C152.773 18.7749 153.074 19.4179 153.579 19.9713C154.1 20.5248 154.784 20.9561 155.63 21.2654C156.476 21.5584 157.453 21.7049 158.56 21.7049C160.204 21.7049 161.506 21.4526 162.466 20.948C163.427 20.4271 163.907 19.7272 163.907 18.8482C163.907 18.132 163.63 17.5948 163.077 17.2367C162.523 16.8786 161.522 16.61 160.074 16.431L156.118 15.9183C153.905 15.6253 152.293 15.08 151.284 14.2824C150.291 13.4685 149.794 12.3209 149.794 10.8397C149.794 9.71655 150.128 8.74804 150.796 7.93417C151.479 7.10402 152.44 6.4692 153.677 6.02971C154.914 5.57394 156.362 5.34605 158.023 5.34605C159.667 5.34605 161.124 5.59022 162.393 6.07854C163.663 6.56686 164.672 7.25051 165.421 8.1295C166.186 8.9922 166.601 10.0095 166.666 11.1815H163.394C163.313 10.5304 163.036 9.96885 162.564 9.4968C162.108 9.02476 161.49 8.65851 160.708 8.39807C159.927 8.12136 159.008 7.983 157.949 7.983C156.452 7.983 155.256 8.22716 154.36 8.71548C153.465 9.20381 153.017 9.87118 153.017 10.7176C153.017 11.3687 153.278 11.8733 153.799 12.2314C154.336 12.5732 155.264 12.8337 156.582 13.0127L160.586 13.5743C162.23 13.8022 163.524 14.1115 164.469 14.5021C165.429 14.8765 166.113 15.3892 166.52 16.0403C166.926 16.6752 167.13 17.4972 167.13 18.5064C167.13 19.6783 166.772 20.7038 166.056 21.5828C165.339 22.4618 164.33 23.1454 163.028 23.6338C161.742 24.1058 160.236 24.3418 158.511 24.3418C156.753 24.3418 155.199 24.0814 153.848 23.5605C152.513 23.0234 151.455 22.2827 150.673 21.3386C149.892 20.3945 149.469 19.2958 149.404 18.0425ZM170.127 24V5.68788H173.35V21.2898L172.373 20.6794L184.63 5.68788H188.121L173.008 24H170.127ZM178.843 14.7951L181.114 12.5732L188.39 24H184.703L178.843 14.7951ZM190.442 5.68788H193.665V24H190.442V5.68788ZM204.745 24V15.259H207.968V24H204.745ZM196.101 5.68788H199.739L207.211 15.0637H205.477L212.949 5.68788H216.587L207.382 17.2367L205.331 17.2611L196.101 5.68788Z" fill="black"/>
<path d="M2.05015 47.5205V34.9319H3.14716L8.90196 44.751H8.32648L14.0273 34.9319H15.1243V47.5205H13.8475V36.9281H14.1532L8.90196 45.92H8.27253L2.98531 36.9281H3.327V47.5205H2.05015ZM17.2119 47.5205L22.9667 34.9319H24.2795L30.0343 47.5205H28.6316L23.3443 35.7052H23.8838L18.5966 47.5205H17.2119ZM19.4778 44.1575L19.8735 43.0785H27.1929L27.5885 44.1575H19.4778ZM33.9303 47.5205V36.0828H29.5063V34.9319H39.6851V36.0828H35.2611V47.5205H33.9303ZM51.0188 47.5205V34.9319H52.3316V47.5205H51.0188ZM41.8111 47.5205V34.9319H43.1419V47.5205H41.8111ZM42.9981 41.7118V40.5428H51.1447V41.7118H42.9981ZM63.593 47.5205V36.0828H59.169V34.9319H69.3478V36.0828H64.9238V47.5205H63.593ZM76.2994 47.6284C74.6928 47.6284 73.4279 47.1668 72.5048 46.2437C71.5816 45.3205 71.12 43.9537 71.12 42.1434V34.9319H72.4508V42.0894C72.4508 43.5761 72.7865 44.6731 73.4579 45.3804C74.1293 46.0878 75.0765 46.4415 76.2994 46.4415C77.5342 46.4415 78.4874 46.0878 79.1588 45.3804C79.8302 44.6731 80.1659 43.5761 80.1659 42.0894V34.9319H81.4607V42.1434C81.4607 43.9537 80.9991 45.3205 80.0759 46.2437C79.1648 47.1668 77.9059 47.6284 76.2994 47.6284ZM87.6709 47.5205V36.0828H83.2468V34.9319H93.4257V36.0828H89.0017V47.5205H87.6709ZM100.879 47.6284C99.9319 47.6284 99.0507 47.4726 98.2355 47.1608C97.4322 46.8371 96.7308 46.3875 96.1314 45.8121C95.5439 45.2246 95.0823 44.5472 94.7466 43.7799C94.4229 43.0006 94.2611 42.1494 94.2611 41.2262C94.2611 40.303 94.4229 39.4578 94.7466 38.6905C95.0823 37.9112 95.5439 37.2338 96.1314 36.6583C96.7308 36.0708 97.4322 35.6212 98.2355 35.3095C99.0387 34.9858 99.92 34.824 100.879 34.824C101.826 34.824 102.701 34.9858 103.505 35.3095C104.308 35.6212 105.003 36.0648 105.591 36.6403C106.19 37.2158 106.652 37.8932 106.976 38.6725C107.311 39.4518 107.479 40.303 107.479 41.2262C107.479 42.1494 107.311 43.0006 106.976 43.7799C106.652 44.5592 106.19 45.2366 105.591 45.8121C105.003 46.3875 104.308 46.8371 103.505 47.1608C102.701 47.4726 101.826 47.6284 100.879 47.6284ZM100.879 46.4415C101.634 46.4415 102.33 46.3156 102.965 46.0638C103.613 45.8001 104.17 45.4344 104.638 44.9668C105.117 44.4872 105.489 43.9357 105.753 43.3123C106.016 42.6769 106.148 41.9815 106.148 41.2262C106.148 40.4709 106.016 39.7815 105.753 39.1581C105.489 38.5226 105.117 37.9711 104.638 37.5036C104.17 37.024 103.613 36.6583 102.965 36.4065C102.33 36.1428 101.634 36.0109 100.879 36.0109C100.124 36.0109 99.4224 36.1428 98.775 36.4065C98.1276 36.6583 97.5641 37.024 97.0845 37.5036C96.6169 37.9711 96.2453 38.5226 95.9695 39.1581C95.7058 39.7815 95.5739 40.4709 95.5739 41.2262C95.5739 41.9695 95.7058 42.6589 95.9695 43.2943C96.2453 43.9297 96.6169 44.4872 97.0845 44.9668C97.5641 45.4344 98.1276 45.8001 98.775 46.0638C99.4224 46.3156 100.124 46.4415 100.879 46.4415ZM110.462 47.5205V34.9319H115.174C116.768 34.9319 118.021 35.3155 118.932 36.0828C119.856 36.8382 120.317 37.8932 120.317 39.248C120.317 40.1352 120.107 40.9025 119.688 41.5499C119.28 42.1853 118.693 42.6769 117.925 43.0246C117.158 43.3603 116.241 43.5281 115.174 43.5281H111.199L111.793 42.9167V47.5205H110.462ZM119.058 47.5205L115.821 42.9526H117.26L120.515 47.5205H119.058ZM111.793 43.0246L111.199 42.3951H115.138C116.397 42.3951 117.35 42.1194 117.997 41.5679C118.657 41.0164 118.986 40.2431 118.986 39.248C118.986 38.2409 118.657 37.4616 117.997 36.9101C117.35 36.3586 116.397 36.0828 115.138 36.0828H111.199L111.793 35.4534V43.0246Z" fill="black"/>
</svg>
