<svg width="36" height="35" viewBox="0 0 36 35" fill="none" xmlns="http://www.w3.org/2000/svg">
<path fill-rule="evenodd" clip-rule="evenodd" d="M17.9567 34.9061C14.5064 34.9061 12.903 34.4024 10.1159 32.3876C8.35296 34.6542 2.77035 36.4256 2.52687 33.395C2.52687 31.12 2.02317 29.1976 1.45231 27.0988C0.77234 24.5132 0 21.6337 0 17.4615C0 7.49666 8.17668 0 17.8644 0C27.5605 0 35.158 7.86605 35.158 17.5538C35.1905 27.0917 27.4946 34.8552 17.9567 34.9061ZM18.0995 8.61318C13.3815 8.36975 9.70453 11.6354 8.89024 16.7563C8.21864 20.9957 9.41073 26.1586 10.4265 26.4272C10.9134 26.5448 12.1391 25.5542 12.903 24.7902C14.1662 25.6629 15.6372 26.187 17.1677 26.3097C22.0562 26.5449 26.2333 22.8232 26.5615 17.94C26.7526 13.0464 22.9887 8.90164 18.0995 8.6216V8.61318Z" fill="black"/>
</svg>
