<svg width="115" height="42" viewBox="0 0 115 42" fill="none" xmlns="http://www.w3.org/2000/svg">
<g clip-path="url(#clip0_1173_55)">
<path d="M86.6309 21.4154V30.6537H90.4109V21.9835C90.4109 18.1189 95.6657 18.1189 95.6657 18.1189V14.3633C95.6657 14.3633 94.199 14.4317 93.0383 14.6937C89.7499 15.4312 86.6309 17.0591 86.6309 21.4235V21.4154Z" fill="black"/>
<path d="M58.1083 14.1676C59.5832 14.1676 61.4228 14.9979 62.4223 16.4646C63.456 15.1346 65.1686 14.2263 67.2783 14.1937C69.9562 14.1595 73.2707 15.8297 73.2707 20.8307V30.629H69.4907V20.8307C69.4907 19.1604 68.2876 17.9656 66.4823 17.9656C64.6769 17.9656 63.4723 19.1604 63.4723 20.8307V30.629H59.6923V20.8307C59.6923 19.1604 58.4893 17.9656 56.6839 17.9656C54.8786 17.9656 53.6414 19.1604 53.6414 20.8307V30.629H49.666V14.6511H53.6414V16.253C54.7174 14.9556 56.2851 14.1514 58.1246 14.1514L58.1083 14.1676Z" fill="black"/>
<path d="M81.9783 14.8633V30.6458H78.1299V14.8633H81.9783Z" fill="black"/>
<path d="M80.0443 12.3541C81.2311 12.3541 82.1883 11.3969 82.1883 10.2183C82.1883 9.03973 81.2311 8.08252 80.0443 8.08252C78.8576 8.08252 77.9004 9.03973 77.9004 10.2183C77.9004 11.3969 78.8576 12.3541 80.0443 12.3541Z" fill="black"/>
<path d="M105.94 14.1353C101.277 14.1353 97.5054 17.8908 97.5054 22.5271C97.5054 27.1634 101.285 30.919 105.94 30.919C110.594 30.919 114.374 27.1634 114.374 22.5271C114.374 17.8908 110.594 14.1353 105.94 14.1353ZM105.94 27.1455C103.304 27.1455 101.168 25.0178 101.168 22.3904C101.168 19.7629 103.304 17.6353 105.94 17.6353C108.575 17.6353 110.713 19.7629 110.713 22.3904C110.713 25.0178 108.577 27.1455 105.94 27.1455Z" fill="black"/>
<path d="M0.081543 10.5573C0.081543 4.79449 4.76015 0.114258 10.5229 0.114258H31.409C37.1734 0.114258 41.852 4.79286 41.852 10.5573V31.4417C41.852 37.2061 37.1734 41.8847 31.409 41.8847H10.5229C4.76015 41.8863 0.081543 37.2061 0.081543 31.4433V10.5573Z" fill="#FFDD33"/>
<path fill-rule="evenodd" clip-rule="evenodd" d="M27.8491 8.08252H24.0609L27.2223 13.6337L20.2712 8.08252H16.483L19.9586 14.8628L12.6949 8.08252H8.90674L12.6949 16.7202L8.90674 33.9939H12.6949L19.9586 15.4911L16.483 33.9939H20.2712L27.2223 14.2523L24.0609 33.9939H27.8491L34.8002 12.4046L27.8491 8.09066V8.08252Z" fill="#1C1C1E"/>
</g>
<defs>
<clipPath id="clip0_1173_55">
<rect width="114.442" height="42" fill="white"/>
</clipPath>
</defs>
</svg>
