<svg width="30" height="30" viewBox="0 0 30 30" fill="none" xmlns="http://www.w3.org/2000/svg">
<path d="M27.7379 19.0763L21.0738 16.0888L21.0483 16.0775C20.6151 15.8907 20.142 15.8155 19.6723 15.8588C19.2026 15.9021 18.7512 16.0624 18.3594 16.3251C18.3045 16.3619 18.2516 16.4016 18.2009 16.444L15.0436 19.1329C13.2038 18.1352 11.3032 16.2501 10.3041 14.433L13.0015 11.2262C13.0448 11.1744 13.085 11.1201 13.1218 11.0634C13.3776 10.673 13.5329 10.2255 13.5739 9.76052C13.6149 9.29558 13.5403 8.82771 13.3567 8.3986C13.3523 8.39038 13.3485 8.38187 13.3454 8.37312L10.3593 1.69762C10.1142 1.13936 9.69584 0.674837 9.16621 0.372806C8.63657 0.0707762 8.02377 -0.0527156 7.41849 0.0206066C5.36415 0.290476 3.47828 1.29892 2.1131 2.8576C0.747925 4.41627 -0.00320062 6.41859 1.02518e-05 8.49058C1.02518e-05 20.04 9.39553 29.4356 20.945 29.4356C23.017 29.4388 25.0193 28.6876 26.578 27.3225C28.1366 25.9573 29.1451 24.0714 29.415 22.0171C29.4883 21.4118 29.3648 20.799 29.0628 20.2694C28.7607 19.7397 28.2962 19.3214 27.7379 19.0763ZM20.945 26.0391C16.2926 26.0335 11.8323 24.1828 8.54253 20.893C5.25277 17.6033 3.40211 13.143 3.39649 8.49058C3.39325 7.31808 3.79131 6.17977 4.52452 5.2648C5.25773 4.34983 6.28195 3.71329 7.42699 3.46096L10.0904 9.40481L7.37887 12.6343C7.33504 12.6865 7.2944 12.7413 7.25716 12.7985C6.9899 13.2068 6.83277 13.6773 6.80103 14.1644C6.76929 14.6514 6.86402 15.1383 7.07601 15.5779C8.40913 18.3064 11.156 21.0349 13.9129 22.3709C14.3554 22.5807 14.8448 22.6721 15.3332 22.6361C15.8216 22.6001 16.2924 22.438 16.6994 22.1657C16.7541 22.1288 16.8066 22.0886 16.8565 22.0454L20.0308 19.3466L25.9746 22.0086C25.7223 23.1536 25.0857 24.1778 24.1708 24.911C23.2558 25.6443 22.1175 26.0423 20.945 26.0391Z" fill="black"/>
</svg>
