<svg width="26" height="22" viewBox="0 0 26 22" fill="none" xmlns="http://www.w3.org/2000/svg">
<path fill-rule="evenodd" clip-rule="evenodd" d="M1.73857 9.10494C8.52735 6.12018 13.0543 4.15245 15.3193 3.20174C21.7865 0.487269 23.1303 0.0157363 24.0062 0.000166014C24.1989 -0.0032585 24.6296 0.0449198 24.9086 0.273385C25.1442 0.466297 25.209 0.726893 25.24 0.909794C25.2711 1.0927 25.3097 1.50935 25.279 1.83491C24.9285 5.55082 23.4121 14.5683 22.6406 18.7302C22.3142 20.4913 21.6714 21.0817 21.0491 21.1395C19.6968 21.2651 18.6699 20.2376 17.3601 19.3712C15.3105 18.0154 14.1526 17.1714 12.1631 15.8484C9.86386 14.3194 11.3543 13.4791 12.6646 12.1057C13.0076 11.7463 18.966 6.27715 19.0814 5.78102C19.0958 5.71897 19.1092 5.48767 18.973 5.36554C18.8368 5.24341 18.6359 5.28517 18.4909 5.31839C18.2853 5.36547 15.011 7.54939 8.66805 11.8701C7.73866 12.5142 6.89685 12.8279 6.14262 12.8115C5.31113 12.7934 3.71169 12.3371 2.52267 11.947C1.06429 11.4687 -0.0948042 11.2157 0.00612679 10.4033C0.0586979 9.9801 0.636179 9.54732 1.73857 9.10494Z" fill="black"/>
</svg>
