<svg width="261" height="31" viewBox="0 0 261 31" fill="none" xmlns="http://www.w3.org/2000/svg">
<g clip-path="url(#clip0_1176_175)">
<path d="M102.33 26.9935C104.435 26.9935 105.927 26.6133 107.038 25.7945V22.0803C105.897 22.8699 104.523 23.3671 102.593 23.3671C99.3465 23.3671 98.0013 20.852 98.0013 16.8747C98.0013 12.6926 99.639 10.5577 102.622 10.5577C104.377 10.5577 106.102 11.1718 107.009 11.7567V7.89635C106.044 7.36993 104.377 6.98975 102.096 6.98975C96.2758 6.98975 93.2635 11.1718 93.2635 17.0209C93.2928 23.4256 96.2465 26.9935 102.33 26.9935ZM73.8739 25.2973V21.5831C72.4701 22.5482 70.072 23.3964 67.8786 23.3964C64.5447 23.3964 63.2871 21.8171 63.0824 18.6001H74.0786V16.202C74.0786 9.50484 71.1248 6.98975 66.5918 6.98975C61.0352 6.98975 58.4031 11.2303 58.4031 17.0501C58.4031 23.7473 61.7079 26.9935 67.4984 26.9935C70.3937 26.9935 72.5286 26.2039 73.8739 25.2973ZM32.1409 7.34069V14.9445H26.0579V7.34069H21.4956V26.6133H26.0579V18.5709H32.1409V26.6133H36.7032V7.34069H32.1409ZM57.2626 22.9869H55.2447V7.34069H41.9673V8.97843C41.9673 13.6869 41.6749 19.7699 40.0664 22.9869H38.6041V31.0001H42.8154V26.6133H53.022V31.0001H57.2333V22.9869H57.2626ZM88.4088 26.6133H93.5852L86.2739 16.2313L92.7079 7.34069H88.1164L81.6824 16.2313V7.34069H77.1201V26.6133H81.6824V17.1379L88.4088 26.6133ZM66.4748 10.5577C68.7267 10.5577 69.4286 12.4294 69.4286 14.8567V15.2369H63.0824C63.1994 12.1662 64.3107 10.5577 66.4748 10.5577ZM50.6824 22.9869H44.2484C45.506 20.0916 45.8569 14.8275 45.8569 11.4935V10.9086H50.6824V22.9869Z" fill="black"/>
<path d="M17.6934 26.6132H13.0434V3.59717H10.967C7.16509 3.59717 5.17642 5.49811 5.17642 8.33491C5.17642 11.5519 6.55094 13.0434 9.38774 14.9443L11.7274 16.5236L5.00094 26.6132H0L6.05377 17.6057C2.57359 15.1198 0.614151 12.6925 0.614151 8.59811C0.614151 3.48019 4.18208 0 10.9377 0H17.6642L17.6934 26.6132Z" fill="black"/>
</g>
<path fill-rule="evenodd" clip-rule="evenodd" d="M260.499 12.4555V9.01172H245.025V12.4555H250.457V27.4431H255.068V12.4555H260.499Z" fill="black"/>
<path d="M229.441 18.0225C229.441 12.4383 232.492 8.46143 238.368 8.46143C240.643 8.46143 242.346 8.82522 243.312 9.33617V13.022C242.385 12.4747 240.647 11.891 238.87 11.891C235.856 11.891 234.195 13.9348 234.195 17.9117C234.195 21.7149 235.548 24.1159 238.832 24.1159C240.757 24.1159 242.157 23.6414 243.312 22.8758V26.4144C242.192 27.1817 240.687 27.5471 238.56 27.5471C232.417 27.5504 229.441 24.1523 229.441 18.0225Z" fill="black"/>
<path fill-rule="evenodd" clip-rule="evenodd" d="M204.122 27.7578H208.611L208.538 9.38745H202.231L198.01 21.6264L194.23 9.38745H187.532V27.7578H191.435V14.0318L195.656 27.7578H199.401L204.122 14.0318V27.7578ZM219.48 24.3934C216.918 24.3934 215.65 22.5379 215.65 18.2963C215.65 14.0213 216.918 12.1544 219.48 12.1544C222.03 12.1544 223.311 14.0213 223.311 18.262C223.311 22.5379 222.03 24.3934 219.48 24.3934ZM219.48 8.71936C214.405 8.71936 210.893 12.1201 210.893 18.2963C210.893 24.4277 214.405 27.8275 219.48 27.8275C224.542 27.8275 228.056 24.4277 228.056 18.262C228.056 12.1201 224.542 8.71936 219.48 8.71936ZM176.553 12.0847C178.834 12.0847 179.53 13.882 179.53 16.1755V16.5439H173.113C173.223 13.6176 174.346 12.0847 176.553 12.0847ZM184.019 26.1562V22.6066C182.591 23.5172 180.189 24.3237 177.944 24.3237C174.577 24.3237 173.309 22.8252 173.113 19.7595H184.214V17.4545C184.214 11.0587 181.238 8.64967 176.627 8.64967C171.028 8.64967 168.356 12.7071 168.356 18.262C168.356 24.6578 171.687 27.7578 177.554 27.7578C180.494 27.7578 182.665 27.0315 184.019 26.1562ZM148.717 23.6317V27.3894C148.717 27.3894 149.448 27.7578 150.534 27.7578C154.474 27.7578 155.474 25.1302 155.707 19.0341L155.988 12.4532H160.659V27.3894H165.258V9.01904H152.072L151.693 18.8499C151.534 22.7565 151.266 23.9553 149.753 23.9553C149.095 23.9553 148.717 23.6317 148.717 23.6317ZM139.507 12.0847C141.788 12.0847 142.483 13.882 142.483 16.1755V16.5439H136.067C136.189 13.6176 137.299 12.0847 139.507 12.0847ZM146.972 26.1562V22.6066C145.545 23.5172 143.142 24.3237 140.898 24.3237C137.543 24.3237 136.263 22.8252 136.067 19.7595H147.167V17.4545C147.167 11.0587 144.191 8.64967 139.592 8.64967C133.98 8.64967 131.309 12.7071 131.309 18.262C131.309 24.6578 134.64 27.7578 140.52 27.7578C143.46 27.7578 145.618 27.0315 146.972 26.1562ZM116 5.43412H122.38V27.3894H127.052V5.43412H133.432V2H116V5.43412Z" fill="black"/>
<defs>
<clipPath id="clip0_1176_175">
<rect width="107.33" height="31" fill="white"/>
</clipPath>
</defs>
</svg>
